# xmcd CD database file
#
# Track frame offsets:
#	150
#	37288
#	55634
#	90660
#	118256
#	160697
#	193501
#	221859
#	243967
#	292628
#	310821
#
# Disc length: 4434 seconds
#
# Revision: 0
# Processed by: cddbd v1.5.2PL0 Copyright (c) Steve Scherf et al.
# Submitted via: CDex 1.89
#
DISCID=9611500b
DTITLE=Wanderlust - Song and Dance
DYEAR=1999
DGENRE=Jazz
TTITLE0=Song and Dance
TTITLE1=La Kemba
TTITLE2=Delicatessence
TTITLE3=Over The Moon
TTITLE4=Field Call
TTITLE5=Jabiluka
TTITLE6=Millenium Jitterbug
TTITLE7=Seven Blokes
TTITLE8=Under The Weather
TTITLE9=Bitter Sweet
TTITLE10=Seven Blokes Finale
EXTD=YEAR: 1999
EXTT0=
EXTT1=
EXTT2=
EXTT3=
EXTT4=
EXTT5=
EXTT6=
EXTT7=
EXTT8=
EXTT9=
EXTT10=
PLAYORDER=
